<svg xmlns="http://www.w3.org/2000/svg" width="24" height="24" viewBox="0 0 110.129 110.131"><path fill="#FDFDFB" d="M54.662 90.394c20.161.046 35.371-14.784 35.407-34.522.038-20.576-14.706-35.883-34.604-35.925-20.414-.043-35.486 14.765-35.519 34.896-.033 20.774 14.35 35.504 34.716 35.551zm48.75-18.029c-5.148-1.144-8.381.013-11.512 5.217-16.95 28.178-56.927 27.875-74.065-.208-3.839-6.291-3.839-6.291-11.164-4.62 5.88 19.843 27.617 34.954 49.346 34.306 21.886-.653 43.429-16.423 47.395-34.695zM5.88 37.704c5.872 1.366 9.165.178 12.186-5.09 10.938-19.071 35.397-26.08 55.213-16.605C82.316 20.33 88.98 27.02 93.635 35.83c1.035 1.961 7.253 3.55 8.711 2.065 1.885-1.918-.264-3.657-1.02-5.226C91.775 12.835 71.587 1.505 49.503 3.858 28.3 6.117 14.372 18.011 5.88 37.704z"/><path fill-rule="evenodd" clip-rule="evenodd" fill="#CBD406" d="M54.662 90.394c-20.366-.047-34.749-14.776-34.716-35.552.033-20.131 15.105-34.938 35.519-34.896 19.898.042 34.643 15.349 34.604 35.925-.036 19.738-15.246 34.568-35.407 34.523zm-.057-8.098c14.795.17 26.289-11.115 26.461-25.982.175-15.153-11.494-27.868-25.814-28.127-14.095-.256-26.259 12.161-26.417 26.965-.165 15.441 10.781 26.971 25.77 27.144z"/><path fill-rule="evenodd" clip-rule="evenodd" fill="#DEDE1E" d="M103.412 72.365c-3.966 18.271-25.509 34.042-47.395 34.694-21.729.648-43.466-14.463-49.346-34.306 7.325-1.671 7.325-1.671 11.164 4.62 17.138 28.084 57.115 28.387 74.065.209 3.131-5.204 6.364-6.36 11.512-5.217zM5.88 37.704C14.372 18.011 28.3 6.117 49.503 3.858c22.083-2.354 42.272 8.977 51.823 28.812.756 1.568 2.904 3.308 1.02 5.226-1.458 1.484-7.676-.104-8.711-2.065-4.654-8.811-11.318-15.5-20.355-19.821-19.816-9.475-44.275-2.466-55.213 16.605-3.022 5.267-6.315 6.455-12.187 5.089z"/><path fill-rule="evenodd" clip-rule="evenodd" fill="#FCFCF7" d="M54.605 82.296c-14.989-.173-25.935-11.703-25.77-27.145.158-14.804 12.322-27.221 26.417-26.965 14.32.259 25.989 12.974 25.814 28.127-.171 14.868-11.666 26.153-26.461 25.983zm-.191-26.545c-4.545-2.655-8.214-4.542-11.595-6.851-2.927-1.998-3.912-.947-4.638 1.97-1.825 7.334 1.243 15.101 7.689 19.076 6.433 3.966 15.243 3.086 20.866-2.084 5.473-5.032 7.048-13.439 3.783-20.193-3.316-6.86-10.654-10.656-18.148-9.628-3.205.439-3.849 1.613-2.568 4.621 1.665 3.906 2.854 8.017 4.611 13.089z"/><path fill-rule="evenodd" clip-rule="evenodd" fill="#B7AB0A" d="M54.414 55.751c-1.757-5.072-2.946-9.183-4.61-13.089-1.281-3.008-.637-4.182 2.568-4.621 7.494-1.028 14.832 2.768 18.148 9.628 3.265 6.754 1.689 15.161-3.783 20.193-5.623 5.17-14.433 6.05-20.866 2.084-6.446-3.976-9.514-11.742-7.689-19.076.726-2.917 1.711-3.968 4.638-1.97 3.38 2.309 7.049 4.196 11.594 6.851z"/></svg>